<?xml version="1.0" encoding="UTF-8" standalone="no"?>
<!-- Created with Inkscape (http://www.inkscape.org/) by Marsupilami -->
<svg
   xmlns:svg="http://www.w3.org/2000/svg"
   xmlns="http://www.w3.org/2000/svg"
   version="1.0"
   width="1024"
   height="547"
   viewBox="0 0 127.97602 68.354599"
   id="svg4368">
  <defs
     id="defs4370" />
  <g
     transform="translate(-311.01199,-498.18488)"
     id="layer1">
    <path
       d="M 434.81571,520.55891 C 435.23117,519.13606 435.87672,516.92681 435.87672,516.92681 L 431.08242,514.9865 C 430.8782,514.9039 430.66695,514.82045 430.45864,514.73721 L 431.29309,512.31512 L 426.743,510.84987 C 427.10137,509.64498 427.31029,508.93191 427.31851,508.90585 L 427.85049,507.09238 L 426.05742,506.48551 C 409.10457,500.74497 393.35693,498.18488 374.99587,498.18488 C 356.63993,498.18488 340.89443,500.74497 323.94242,506.48551 L 322.14997,507.09238 L 322.68183,508.90553 C 322.68959,508.93191 322.89909,509.64498 323.25712,510.84987 L 318.70704,512.31512 L 319.54149,514.73811 C 319.33377,514.82128 319.12426,514.90242 318.91683,514.9865 L 314.12218,516.92681 C 314.12218,516.92681 314.76785,519.13628 315.18391,520.55891 C 313.83254,521.04472 311.01199,522.05802 311.01199,522.05802 L 321.3052,553.36958 C 321.3052,553.36958 324.04299,552.38641 325.56041,551.84145 C 326.18079,553.46626 326.9351,555.4415 326.9351,555.4415 L 332.37444,553.20177 C 332.54858,553.13007 332.72014,553.06467 332.89368,552.99416 L 333.45802,554.76437 L 335.44961,553.88298 C 337.08056,553.18491 342.07367,551.1548 348.8794,549.36518 C 346.4617,552.96088 343.89628,556.77632 343.89628,556.77632 C 343.89628,556.77632 358.06486,552.15326 359.46421,551.6966 C 359.96905,552.9098 365.6435,566.53948 365.6435,566.53948 C 365.6435,566.53948 369.75338,552.45123 370.13683,551.13818 C 371.28023,551.43187 387.89117,555.69816 387.89117,555.69816 C 387.89117,555.69816 383.17807,550.26316 379.7131,546.26645 C 395.73438,546.3987 410.21444,552.0276 414.54976,553.88298 L 416.54999,554.73851 L 417.1055,552.99416 C 417.2797,553.06498 417.45092,553.13035 417.62511,553.20177 L 423.06502,555.4415 C 423.06502,555.4415 423.81884,553.46651 424.43909,551.84145 C 425.95679,552.38641 428.69496,553.36958 428.69496,553.36958 L 438.98801,522.05777 C 438.98801,522.05777 436.16626,521.0442 434.81571,520.55891"
       id="path2946"
       style="fill:#c9cfd2;fill-opacity:1;fill-rule:evenodd;stroke:none" />
    <path
       d="M 432.25937,521.85693 C 432.29997,521.7185 433.34274,518.15116 433.34274,518.15116 L 430.29736,516.91903 C 429.51707,516.60291 428.72907,516.29606 427.93761,515.99315 L 428.77086,513.57397 L 424.30022,512.13418 C 424.99757,509.80158 425.42302,508.35173 425.42302,508.35173 C 409.79957,503.06127 394.375,500.15587 374.99587,500.15587 C 355.61758,500.15587 340.19996,503.06127 324.57684,508.35173 C 324.57684,508.35173 325.00214,509.8018 325.70008,512.13418 L 321.22876,513.57397 L 322.06176,515.99315 C 321.27042,516.29606 320.48252,516.60291 319.70185,516.91903 L 316.65626,518.15116 C 316.65626,518.15116 317.69902,521.71881 317.73956,521.85693 C 317.49271,521.94557 313.62996,523.33346 313.62996,523.33346 L 322.62003,550.68133 C 322.62003,550.68133 326.60981,549.2484 326.78282,549.18618 C 326.78282,549.18675 328.12295,552.69672 328.12295,552.69672 L 331.57797,551.27418 C 332.42018,550.92737 333.25747,550.59445 334.09333,550.26863 C 334.40024,551.23257 334.60367,551.86726 334.67176,552.07118 C 336.63749,551.23028 343.64261,548.3676 352.92918,546.35967 C 350.80115,549.52433 348.01881,553.66212 348.01881,553.66212 C 348.01881,553.66212 360.23083,549.67746 360.42168,549.61526 C 360.5153,549.84043 365.36363,561.48503 365.36363,561.48503 C 365.36363,561.48503 368.90369,549.34966 368.97553,549.10388 C 369.28069,549.18241 383.08861,552.72852 383.08861,552.72852 C 383.08861,552.72852 378.5544,547.49973 375.83977,544.36895 C 394.62629,543.46008 412.00754,550.65037 415.3283,552.07118 C 415.39597,551.86726 415.5996,551.23228 415.90617,550.26832 C 416.74184,550.59445 417.57982,550.92737 418.42194,551.27418 L 421.87745,552.69672 C 421.87745,552.69672 423.21742,549.18675 423.21742,549.18618 C 423.38984,549.2484 427.37911,550.68133 427.37911,550.68133 L 436.36989,523.33346 C 436.36989,523.33346 432.50654,521.94557 432.25937,521.85693"
       id="path2948"
       style="fill:#181a21;fill-opacity:1;fill-rule:evenodd;stroke:none" />
    <path
       d="M 428.4843,523.7746 C 428.4843,523.7746 429.38231,520.7026 429.59946,519.96066 C 429.36876,519.86715 429.1375,519.77391 429.1375,519.77391 C 412.45714,513.02382 393.25454,509.30621 375.06943,509.30621 C 356.79422,509.30621 337.54315,513.02382 320.86155,519.77391 C 320.86155,519.77391 320.63083,519.86715 320.40038,519.96066 C 320.61727,520.70291 321.51523,523.7746 321.51523,523.7746 C 321.51523,523.7746 318.28349,524.93587 317.49788,525.2181 C 317.81653,526.18722 324.22598,545.68506 324.56279,546.70961 C 325.38112,546.41563 328.58844,545.2638 328.58844,545.2638 C 328.58844,545.2638 329.58553,547.87572 329.87774,548.64151 C 330.13923,548.53397 330.4007,548.42612 330.4007,548.42612 C 339.5224,544.67035 348.24866,542.12122 357.02179,540.6691 C 358.16227,541.47041 359.08346,542.11807 359.08346,542.11807 C 359.08346,542.11807 355.23166,547.84707 354.73026,548.59273 C 355.5828,548.31455 361.98077,546.22686 361.98077,546.22686 C 361.98077,546.22686 364.56972,552.44605 364.90762,553.25742 C 365.15444,552.41165 367.08571,545.79213 367.08571,545.79213 C 367.08571,545.79213 374.31029,547.64771 375.26951,547.8941 C 374.62513,547.15043 369.94145,541.74896 369.94145,541.74896 C 369.94145,541.74896 371.38735,540.51822 372.90621,539.22841 C 373.60296,539.21582 374.29912,539.20295 375,539.20295 C 390.14445,539.20295 404.31615,542.13382 419.59889,548.42612 C 419.59889,548.42612 419.86074,548.53397 420.12204,548.64151 C 420.41394,547.87572 421.41196,545.2638 421.41196,545.2638 C 421.41196,545.2638 424.61916,546.41563 425.43715,546.70961 C 425.77376,545.68506 432.18346,526.18722 432.50181,525.2181 C 431.71622,524.93587 428.4843,523.7746 428.4843,523.7746"
       id="path2950"
       style="fill:#ffffff;fill-opacity:1;fill-rule:evenodd;stroke:none" />
    <path
       d="M 428.4843,523.7746 C 428.4843,523.7746 429.38231,520.7026 429.59946,519.96066 C 429.36876,519.86715 429.1375,519.77391 429.1375,519.77391 C 412.45714,513.02382 393.25454,509.30621 375.06943,509.30621 C 356.79422,509.30621 337.54315,513.02382 320.86155,519.77391 C 320.86155,519.77391 320.63083,519.86715 320.40038,519.96066 C 320.61727,520.70291 321.51523,523.7746 321.51523,523.7746 C 321.51523,523.7746 318.28349,524.93587 317.49788,525.2181 C 317.81653,526.18722 324.22598,545.68506 324.56279,546.70961 C 325.38112,546.41563 328.58844,545.2638 328.58844,545.2638 C 328.58844,545.2638 329.58553,547.87572 329.87774,548.64151 C 330.13923,548.53397 330.4007,548.42612 330.4007,548.42612 C 339.5224,544.67035 348.24866,542.12122 357.02179,540.6691 C 358.16227,541.47041 359.08346,542.11807 359.08346,542.11807 C 359.08346,542.11807 355.23166,547.84707 354.73026,548.59273 C 355.5828,548.31455 361.98077,546.22686 361.98077,546.22686 C 361.98077,546.22686 364.56972,552.44605 364.90762,553.25742 C 365.15444,552.41165 367.08571,545.79213 367.08571,545.79213 C 367.08571,545.79213 374.31029,547.64771 375.26951,547.8941 C 374.62513,547.15043 369.94145,541.74896 369.94145,541.74896 C 369.94145,541.74896 371.38735,540.51822 372.90621,539.22841 C 373.60296,539.21582 374.29912,539.20295 375,539.20295 C 390.14445,539.20295 404.31615,542.13382 419.59889,548.42612 C 419.59889,548.42612 419.86074,548.53397 420.12204,548.64151 C 420.41394,547.87572 421.41196,545.2638 421.41196,545.2638 C 421.41196,545.2638 424.61916,546.41563 425.43715,546.70961 C 425.77376,545.68506 432.18346,526.18722 432.50181,525.2181 C 431.71622,524.93587 428.4843,523.7746 428.4843,523.7746 z"
       id="path2952"
       style="fill:none;stroke:#231f20;stroke-width:0.23517223;stroke-linecap:butt;stroke-linejoin:miter;stroke-miterlimit:3.86369991;stroke-dasharray:none;stroke-opacity:1" />
    <path
       d="M 320.86155,519.77391 L 320.86155,519.77391 C 320.86155,519.77391 320.63083,519.86715 320.40038,519.96066 C 320.61727,520.70291 321.51523,523.7746 321.51523,523.7746 C 321.51523,523.7746 318.28349,524.93587 317.49788,525.2181 C 317.81653,526.18722 324.22598,545.68506 324.56279,546.70961 C 325.38112,546.41563 328.58844,545.2638 328.58844,545.2638 C 328.58844,545.2638 329.58553,547.87572 329.87774,548.64151 C 330.13923,548.53397 330.4007,548.42612 330.4007,548.42612 C 345.68356,542.13382 359.85502,539.20295 375,539.20295 C 390.14445,539.20295 404.31615,542.13382 419.59889,548.42612 C 419.59889,548.42612 419.86074,548.53397 420.12204,548.64151 C 420.41394,547.87572 421.41196,545.2638 421.41196,545.2638 C 421.41196,545.2638 424.61916,546.41563 425.43715,546.70961 C 425.77376,545.68506 432.18346,526.18722 432.50181,525.2181 C 431.71622,524.93587 428.4843,523.7746 428.4843,523.7746 C 428.4843,523.7746 429.38231,520.7026 429.59946,519.96066 C 429.36876,519.86715 429.1375,519.77391 429.1375,519.77391 C 412.45714,513.02382 393.25454,509.30621 375.06943,509.30621 C 356.79422,509.30621 337.54315,513.02382 320.86155,519.77391"
       id="path2954"
       style="fill:#ffffff;fill-opacity:1;fill-rule:evenodd;stroke:none" />
    <path
       d="M 424.3879,544.56512 C 423.23684,544.15182 420.43629,543.146 420.43629,543.146 C 420.43629,543.146 419.54415,545.48378 419.16576,546.47468 C 404.08367,540.39837 390.0132,537.53968 375,537.53968 C 359.98602,537.53968 345.91607,540.39837 330.83376,546.47468 C 330.4556,545.48378 329.56284,543.146 329.56284,543.146 C 329.56284,543.146 326.76297,544.15182 325.61156,544.56512 C 325.00415,542.71751 320.16158,527.98642 319.58603,526.23542 C 320.71844,525.82878 323.55365,524.81002 323.55365,524.81002 C 323.55365,524.81002 322.74246,522.03537 322.42527,520.95015 C 338.6954,514.51441 357.34304,510.96941 375.06943,510.96941 C 392.70786,510.96941 411.30666,514.51441 427.57391,520.94983 C 427.25672,522.03537 426.44579,524.81002 426.44579,524.81002 C 426.44579,524.81002 429.28169,525.82878 430.41331,526.23542 C 429.83779,527.98673 424.99522,542.71751 424.3879,544.56512"
       id="path2956"
       style="fill:#c9cfd2;fill-opacity:1;fill-rule:evenodd;stroke:none" />
    <path
       d="M 397.8841,523.21967 L 391.99226,522.23842 L 392.16173,521.22572 L 398.05298,522.20662 L 397.8841,523.21967 z M 402.85435,534.51677 L 405.39306,520.20155 C 405.39363,520.1998 405.43836,519.70823 405.43836,519.70823 C 405.44543,519.04942 405.24416,518.41323 404.85636,517.86893 C 404.37087,517.1866 403.64823,516.73428 402.82083,516.59491 L 386.69951,513.86991 L 385.57727,520.48171 C 385.57727,520.48171 383.42698,533.14692 383.31987,533.77907 C 384.22377,533.93167 389.76607,534.86871 390.6676,535.02098 C 390.82767,534.09057 391.80454,528.41862 391.80454,528.41862 L 396.35701,529.18813 L 396.26107,529.74598 C 396.26107,529.74598 395.63553,533.54277 395.60491,533.78713 C 395.49076,534.67852 395.67084,534.93522 395.93211,535.31725 C 396.19868,535.7067 396.653,535.97805 397.20851,536.12662 C 397.14319,536.11368 404.82575,537.9826 404.82575,537.9826 L 402.85435,534.51677"
       id="path2958"
       style="fill:#ffffff;fill-opacity:1;fill-rule:evenodd;stroke:none" />
    <path
       d="M 334.42895,534.9057 L 334.10741,533.9302 L 339.43676,532.18157 L 339.75801,533.15698 L 334.42895,534.9057 z M 332.38133,528.75646 L 332.06011,527.78106 L 337.38917,526.03206 L 337.71071,527.00752 L 332.38133,528.75646 z M 346.98838,534.15593 L 342.67739,520.91137 C 342.14181,519.26888 340.36746,518.36625 338.7221,518.89977 L 338.72617,518.89823 L 326.62387,522.82325 C 325.82654,523.08167 325.17797,523.63493 324.79724,524.38063 C 324.56908,524.8277 324.45333,525.30505 324.45333,525.79888 C 324.45333,526.12673 324.50588,526.45397 324.60902,526.77145 L 328.92034,540.01636 C 329.4551,541.65912 331.2291,542.56148 332.87531,542.02802 C 332.87531,542.02802 332.83564,542.04433 332.81471,542.05292 C 332.91697,542.01452 333.81433,541.7234 344.97357,538.10445 C 346.27091,537.68312 347.1427,536.48457 347.1427,535.12222 C 347.1427,534.79525 347.09068,534.47003 346.98838,534.15593"
       id="path2960"
       style="fill:#ffffff;fill-opacity:1;fill-rule:evenodd;stroke:none" />
    <path
       d="M 351.49793,523.36421 L 351.30398,522.35581 L 357.17091,521.23237 L 357.36489,522.24077 L 351.49793,523.36421 z M 364.74645,523.98483 C 364.74874,523.9949 363.37953,516.88316 363.37953,516.88316 C 363.22411,516.06317 362.75687,515.35302 362.06409,514.88146 C 361.371,514.40996 360.53571,514.23652 359.71191,514.3925 C 359.71191,514.3925 344.68221,517.23825 343.64521,517.43468 C 343.78713,518.18303 346.69386,533.48885 346.69386,533.48885 L 347.1048,535.65165 L 347.41281,537.27415 C 347.41281,537.27415 353.8375,536.05776 354.73828,535.88713 C 354.56161,534.95781 353.48636,529.30513 353.48636,529.30513 L 362.24743,527.64683 C 363.07151,527.49075 363.78498,527.02415 364.25707,526.33237 C 364.6332,525.78111 364.8211,525.1412 364.80104,524.48161 L 364.74645,523.98483"
       id="path2962"
       style="fill:#ffffff;fill-opacity:1;fill-rule:evenodd;stroke:none" />
    <path
       d="M 360.13461,531.20123 C 360.15643,531.71261 360.57656,537.39315 360.57656,537.39315 C 360.57656,537.39315 353.72885,537.67797 352.81944,537.71583 C 353.56251,538.23807 359.08346,542.11807 359.08346,542.11807 C 359.08346,542.11807 355.23166,547.84707 354.73026,548.59273 C 355.5828,548.31455 361.98077,546.22686 361.98077,546.22686 C 361.98077,546.22686 364.56972,552.44605 364.90762,553.25742 C 365.15444,552.41165 367.08571,545.79213 367.08571,545.79213 C 367.08571,545.79213 374.31029,547.64771 375.26951,547.8941 C 374.62513,547.15043 369.94145,541.74896 369.94145,541.74896 C 369.94145,541.74896 375.62259,536.9145 376.28817,536.36551 C 375.50139,536.35978 371.90048,536.30846 371.90048,536.30846 L 372.82498,535.29858 L 378.82629,535.29858 L 385.92212,522.7478 L 385.92212,513.75343 L 379.68133,513.75343 L 376.96316,518.56152 C 376.96316,518.56152 376.66539,520.98196 376.60241,521.49851 C 376.34645,521.95276 374.23144,525.71253 373.54058,526.93988 C 373.21867,526.93988 373.0245,526.93988 372.54251,526.93988 C 373.59179,525.08706 374.96469,522.66435 374.96469,522.66435 L 374.96469,513.75343 L 368.53906,513.75343 L 365.92049,518.54896 C 365.92049,518.54896 365.64522,520.97821 365.58519,521.50597 C 365.31708,521.98266 360.13461,531.20123 360.13461,531.20123"
       id="path2964"
       style="fill:#ffffff;fill-opacity:1;fill-rule:evenodd;stroke:none" />
    <path
       d="M 380.6588,515.42388 L 378.58382,519.09411 L 378.2231,522.0291 L 374.52039,528.61025 L 369.67262,528.61025 L 373.29107,522.22468 L 373.29107,515.42388 L 369.53299,515.42388 L 367.54688,519.06146 L 367.2101,522.0291 L 361.93253,531.4166 L 362.81606,533.62823 L 366.10211,533.62823 L 364.60678,537.40923 L 361.80695,534.38565 L 362.1359,538.82406 L 357.28385,539.02592 L 361.14259,541.73742 L 358.39413,545.82503 L 362.83158,544.37725 L 364.6588,548.76573 L 366.05387,543.98398 L 371.0013,545.2549 L 367.80634,541.57058 L 371.73749,538.33018 L 367.67994,538.58142 L 372.07057,533.62823 L 377.84882,533.62823 L 384.2485,522.30903 L 384.2485,515.42388 L 380.6588,515.42388"
       id="path2974"
       style="fill:#181a21;fill-opacity:1;fill-rule:evenodd;stroke:none" />
    <path
       d="M 380.6588,515.42388 L 378.58382,519.09411 L 378.2231,522.0291 L 374.52039,528.61025 L 369.67262,528.61025 L 373.29107,522.22468 L 373.29107,515.42388 L 369.53299,515.42388 L 367.54688,519.06146 L 367.2101,522.0291 L 361.93253,531.4166 L 362.81606,533.62823 L 366.10211,533.62823 L 364.60678,537.40923 L 361.80695,534.38565 L 362.1359,538.82406 L 357.28385,539.02592 L 361.14259,541.73742 L 358.39413,545.82503 L 362.83158,544.37725 L 364.6588,548.76573 L 366.05387,543.98398 L 371.0013,545.2549 L 367.80634,541.57058 L 371.73749,538.33018 L 367.67994,538.58142 L 372.07057,533.62823 L 377.84882,533.62823 L 384.2485,522.30903 L 384.2485,515.42388 L 380.6588,515.42388 z"
       id="path2976"
       style="fill:none;stroke:#231f20;stroke-width:0.23517223;stroke-linecap:butt;stroke-linejoin:miter;stroke-miterlimit:3.86369991;stroke-dasharray:none;stroke-opacity:1" />
    <path
       d="M 417.86405,528.6248 L 412.53422,526.87586 L 412.85555,525.90043 L 418.18536,527.64943 L 417.86405,528.6248 z M 415.81615,534.77428 L 410.48808,533.02535 L 410.8094,532.04991 L 416.13746,533.79888 L 415.81615,534.77428 z M 425.1435,524.30871 C 424.76334,523.56292 424.11366,523.00996 423.31627,522.75155 L 411.21955,518.82797 C 410.42216,518.5693 409.57065,518.63613 408.82388,519.01615 C 408.07652,519.39617 407.52276,520.04411 407.26383,520.83998 L 402.95264,534.08482 C 402.84906,534.40346 402.79729,534.7307 402.79729,535.05623 C 402.79729,535.5438 402.9132,536.02826 403.14095,536.47515 C 403.52171,537.22108 404.17019,537.77405 404.96817,538.03275 L 417.0655,541.95601 C 417.86229,542.21498 418.71324,542.14818 419.46,541.76817 C 420.20737,541.38843 420.7617,540.74081 421.02062,539.94402 L 425.33241,526.69952 C 425.43599,526.38052 425.48716,526.05337 425.48716,525.7275 C 425.48716,525.23962 425.37241,524.75547 425.1435,524.30871"
       id="path2978"
       style="fill:#ffffff;fill-opacity:1;fill-rule:evenodd;stroke:none" />
    <path
       d="M 381.16429,516.40963 L 379.88201,518.69777 L 381.63448,518.69777 L 382.85441,516.40963 L 381.16429,516.40963"
       id="path2980"
       style="fill:#c9cfd2;fill-opacity:1;fill-rule:evenodd;stroke:none" />
    <path
       d="M 371.94994,516.40963 L 370.13095,516.41107 L 368.85943,518.70096 L 370.74825,518.69746 L 371.94994,516.40963"
       id="path2982"
       style="fill:#c9cfd2;fill-opacity:1;fill-rule:evenodd;stroke:none" />
    <path
       d="M 364.22634,541.90923 C 363.87751,541.90923 363.59451,541.62732 363.59451,541.27888 C 363.59451,540.93036 363.87751,540.64813 364.22634,540.64813 C 364.57488,540.64813 364.85848,540.93036 364.85848,541.27888 C 364.85848,541.62732 364.57488,541.90923 364.22634,541.90923 z M 375.1936,529.49903 L 365.98548,529.49903 L 369.82234,522.75705 L 368.01866,522.75705 L 363.38641,530.91755 L 368.52381,530.91755 L 364.76567,539.47771 L 363.07064,537.64753 L 363.24136,539.95546 L 360.71873,540.0605 L 362.72557,541.47041 L 361.29604,543.59568 L 363.6034,542.84315 L 364.55335,545.12495 L 365.2789,542.63862 L 367.85201,543.29912 L 366.19031,541.38383 L 368.23505,539.6988 L 365.3671,539.87607 L 365.16796,539.8752 L 371.10841,530.91755 L 376.25521,530.91755 L 380.80767,522.75705 L 379.03106,522.75705 L 375.1936,529.49903"
       id="path2984"
       style="fill:#c9cfd2;fill-opacity:1;fill-rule:evenodd;stroke:none" />
    <path
       d="M 370.27159,519.62166 L 368.62385,519.62166 L 368.41147,521.58112 L 370.1127,521.5854 L 370.27159,519.62166"
       id="path2986"
       style="fill:#c9cfd2;fill-opacity:1;fill-rule:evenodd;stroke:none" />
    <path
       d="M 379.39651,521.58112 L 381.09837,521.5854 L 381.2567,519.62166 L 379.60896,519.62166 L 379.39651,521.58112"
       id="path2988"
       style="fill:#c9cfd2;fill-opacity:1;fill-rule:evenodd;stroke:none" />
    <path
       d="M 331.54723,512.44968 C 331.77479,513.29752 332.26842,513.38553 333.36152,513.09325 L 334.81687,512.70376 C 336.41333,512.27706 336.72366,512.00856 336.44154,510.95538 C 336.13518,509.81561 335.67198,509.81788 333.80657,510.32295 C 332.52015,510.6726 332.37134,510.701 332.27994,510.36056 C 332.22335,510.15001 332.38252,510.00891 332.65322,509.93667 L 333.98446,509.58068 C 334.53641,509.43331 334.60048,509.54313 334.67723,509.82942 L 335.87888,509.50813 L 335.8453,509.38395 C 335.6614,508.69788 335.40535,508.26257 334.02008,508.63306 L 332.34286,509.08197 C 330.82741,509.48723 330.90904,510.04993 331.09892,510.75742 C 331.35729,511.71861 331.6205,511.8798 333.42813,511.39648 C 334.97545,510.9826 335.12207,510.96688 335.21337,511.30672 C 335.29441,511.60932 335.04184,511.70596 334.78757,511.77363 L 333.31607,512.16768 C 332.96959,512.26013 332.79311,512.27272 332.67616,511.85798 L 331.47479,512.17921 L 331.54723,512.44968"
       id="path2990"
       style="fill:#ffffff;fill-opacity:1;fill-rule:evenodd;stroke:none" />
    <path
       d="M 331.54723,512.44968 C 331.77479,513.29752 332.26842,513.38553 333.36152,513.09325 L 334.81687,512.70376 C 336.41333,512.27706 336.72366,512.00856 336.44154,510.95538 C 336.13518,509.81561 335.67198,509.81788 333.80657,510.32295 C 332.52015,510.6726 332.37134,510.701 332.27994,510.36056 C 332.22335,510.15001 332.38252,510.00891 332.65322,509.93667 L 333.98446,509.58068 C 334.53641,509.43331 334.60048,509.54313 334.67723,509.82942 L 335.87888,509.50813 L 335.8453,509.38395 C 335.6614,508.69788 335.40535,508.26257 334.02008,508.63306 L 332.34286,509.08197 C 330.82741,509.48723 330.90904,510.04993 331.09892,510.75742 C 331.35729,511.71861 331.6205,511.8798 333.42813,511.39648 C 334.97545,510.9826 335.12207,510.96688 335.21337,511.30672 C 335.29441,511.60932 335.04184,511.70596 334.78757,511.77363 L 333.31607,512.16768 C 332.96959,512.26013 332.79311,512.27272 332.67616,511.85798 L 331.47479,512.17921 L 331.54723,512.44968 z"
       id="path2992"
       style="fill:none;stroke:#231f20;stroke-width:0.23517223;stroke-linecap:butt;stroke-linejoin:miter;stroke-miterlimit:3.86369991;stroke-dasharray:none;stroke-opacity:1" />
    <path
       d="M 342.4481,507.60895 L 343.55353,508.9291 L 341.99729,509.25925 L 342.4481,507.60895 z M 340.15858,511.27292 L 341.51715,510.98466 L 341.72458,510.20885 L 344.18971,509.68563 L 344.71721,510.3058 L 346.07089,510.01835 L 343.04694,506.52156 L 341.46312,506.85712 L 340.15858,511.27292"
       id="path2994"
       style="fill:#ffffff;fill-opacity:1;fill-rule:evenodd;stroke:none" />
    <path
       d="M 342.4481,507.60895 L 343.55353,508.9291 L 341.99729,509.25925 L 342.4481,507.60895 z M 340.15858,511.27292 L 341.51715,510.98466 L 341.72458,510.20885 L 344.18971,509.68563 L 344.71721,510.3058 L 346.07089,510.01835 L 343.04694,506.52156 L 341.46312,506.85712 L 340.15858,511.27292"
       id="path2996"
       style="fill:none;stroke:#231f20;stroke-width:0.23517223;stroke-linecap:butt;stroke-linejoin:miter;stroke-miterlimit:3.86369991;stroke-dasharray:none;stroke-opacity:1" />
    <path
       d="M 349.59887,509.3986 L 350.82725,509.20438 L 350.36611,506.29961 L 350.37701,506.29792 L 353.14557,508.83786 L 355.04923,508.53701 L 354.41421,504.53855 L 353.18636,504.73276 L 353.64672,507.63753 L 353.63576,507.63953 L 350.86751,505.0996 L 348.96445,505.40012 L 349.59887,509.3986"
       id="path2998"
       style="fill:#ffffff;fill-opacity:1;fill-rule:evenodd;stroke:none" />
    <path
       d="M 349.59887,509.3986 L 350.82725,509.20438 L 350.36611,506.29961 L 350.37701,506.29792 L 353.14557,508.83786 L 355.04923,508.53701 L 354.41421,504.53855 L 353.18636,504.73276 L 353.64672,507.63753 L 353.63576,507.63953 L 350.86751,505.0996 L 348.96445,505.40012 L 349.59887,509.3986 z"
       id="path3000"
       style="fill:none;stroke:#231f20;stroke-width:0.23517223;stroke-linecap:butt;stroke-linejoin:miter;stroke-miterlimit:3.86369991;stroke-dasharray:none;stroke-opacity:1" />
    <path
       d="M 365.37975,504.54007 L 366.26447,506.01653 L 364.6763,506.09973 L 365.37975,504.54007 z M 362.54395,507.80131 L 363.93094,507.72907 L 364.25707,506.99512 L 366.7745,506.86353 L 367.19802,507.55815 L 368.57984,507.48553 L 366.14117,503.55942 L 364.5243,503.64435 L 362.54395,507.80131"
       id="path3002"
       style="fill:#ffffff;fill-opacity:1;fill-rule:evenodd;stroke:none" />
    <path
       d="M 365.37975,504.54007 L 366.26447,506.01653 L 364.6763,506.09973 L 365.37975,504.54007 z M 362.54395,507.80131 L 363.93094,507.72907 L 364.25707,506.99512 L 366.7745,506.86353 L 367.19802,507.55815 L 368.57984,507.48553 L 366.14117,503.55942 L 364.5243,503.64435 L 362.54395,507.80131"
       id="path3004"
       style="fill:none;stroke:#231f20;stroke-width:0.23517223;stroke-linecap:butt;stroke-linejoin:miter;stroke-miterlimit:3.86369991;stroke-dasharray:none;stroke-opacity:1" />
    <path
       d="M 372.16,507.37171 L 373.40288,507.37171 L 373.40288,504.43047 L 373.41465,504.43047 L 375.75031,507.37171 L 377.67757,507.37171 L 377.67757,503.32335 L 376.43353,503.32335 L 376.43353,506.26458 L 376.42292,506.26458 L 374.08607,503.32335 L 372.16,503.32335 L 372.16,507.37171"
       id="path3006"
       style="fill:#ffffff;fill-opacity:1;fill-rule:evenodd;stroke:none" />
    <path
       d="M 372.16,507.37171 L 373.40288,507.37171 L 373.40288,504.43047 L 373.41465,504.43047 L 375.75031,507.37171 L 377.67757,507.37171 L 377.67757,503.32335 L 376.43353,503.32335 L 376.43353,506.26458 L 376.42292,506.26458 L 374.08607,503.32335 L 372.16,503.32335 L 372.16,507.37171 z"
       id="path3008"
       style="fill:none;stroke:#231f20;stroke-width:0.23517223;stroke-linecap:butt;stroke-linejoin:miter;stroke-miterlimit:3.86369991;stroke-dasharray:none;stroke-opacity:1" />
    <path
       d="M 381.51853,504.4018 L 383.26396,504.49271 L 383.10392,507.53031 L 384.3462,507.59536 L 384.50565,504.55755 L 386.25108,504.649 L 386.30345,503.64403 L 381.57094,503.39648 L 381.51853,504.4018"
       id="path3010"
       style="fill:#ffffff;fill-opacity:1;fill-rule:evenodd;stroke:none" />
    <path
       d="M 381.51853,504.4018 L 383.26396,504.49271 L 383.10392,507.53031 L 384.3462,507.59536 L 384.50565,504.55755 L 386.25108,504.649 L 386.30345,503.64403 L 381.57094,503.39648 L 381.51853,504.4018 z"
       id="path3012"
       style="fill:none;stroke:#231f20;stroke-width:0.23517223;stroke-linecap:butt;stroke-linejoin:miter;stroke-miterlimit:3.86369991;stroke-dasharray:none;stroke-opacity:1" />
    <path
       d="M 391.17782,505.88518 C 391.23019,505.38441 391.38554,505.09156 392.03759,505.15983 L 393.48524,505.31186 C 394.13785,505.38013 394.22788,505.69897 394.17491,506.19922 L 394.12962,506.63317 C 394.0684,507.21708 393.92187,507.42648 393.33753,507.36515 L 391.75512,507.19931 C 391.16958,507.13791 391.07011,506.90273 391.13249,506.31851 L 391.17782,505.88518 z M 389.82138,506.56925 C 389.6972,507.74798 390.33157,508.0956 391.44498,508.21261 L 393.42874,508.42053 C 394.54271,508.53755 395.23417,508.32908 395.35835,507.14997 L 395.48428,505.9488 C 395.60845,504.77006 394.97584,504.42245 393.86186,504.30543 L 391.87926,504.09751 C 390.7641,503.98072 390.07207,504.18927 389.9479,505.3681 L 389.82138,506.56925"
       id="path3014"
       style="fill:#ffffff;fill-opacity:1;fill-rule:evenodd;stroke:none" />
    <path
       d="M 391.17782,505.88518 C 391.23019,505.38441 391.38554,505.09156 392.03759,505.15983 L 393.48524,505.31186 C 394.13785,505.38013 394.22788,505.69897 394.17491,506.19922 L 394.12962,506.63317 C 394.0684,507.21708 393.92187,507.42648 393.33753,507.36515 L 391.75512,507.19931 C 391.16958,507.13791 391.07011,506.90273 391.13249,506.31851 L 391.17782,505.88518 z M 389.82138,506.56925 C 389.6972,507.74798 390.33157,508.0956 391.44498,508.21261 L 393.42874,508.42053 C 394.54271,508.53755 395.23417,508.32908 395.35835,507.14997 L 395.48428,505.9488 C 395.60845,504.77006 394.97584,504.42245 393.86186,504.30543 L 391.87926,504.09751 C 390.7641,503.98072 390.07207,504.18927 389.9479,505.3681 L 389.82138,506.56925"
       id="path3016"
       style="fill:none;stroke:#231f20;stroke-width:0.23517223;stroke-linecap:butt;stroke-linejoin:miter;stroke-miterlimit:3.86369991;stroke-dasharray:none;stroke-opacity:1" />
    <path
       d="M 399.07868,509.11606 L 400.30334,509.33176 L 400.81588,506.43555 L 400.82705,506.4373 L 402.61545,509.73872 L 404.51326,510.07283 L 405.21768,506.08596 L 403.99249,505.87022 L 403.48167,508.76678 L 403.4699,508.76503 L 401.68093,505.46358 L 399.78369,505.12971 L 399.07868,509.11606"
       id="path3018"
       style="fill:#ffffff;fill-opacity:1;fill-rule:evenodd;stroke:none" />
    <path
       d="M 399.07868,509.11606 L 400.30334,509.33176 L 400.81588,506.43555 L 400.82705,506.4373 L 402.61545,509.73872 L 404.51326,510.07283 L 405.21768,506.08596 L 403.99249,505.87022 L 403.48167,508.76678 L 403.4699,508.76503 L 401.68093,505.46358 L 399.78369,505.12971 L 399.07868,509.11606 z"
       id="path3020"
       style="fill:none;stroke:#231f20;stroke-width:0.23517223;stroke-linecap:butt;stroke-linejoin:miter;stroke-miterlimit:3.86369991;stroke-dasharray:none;stroke-opacity:1" />
    <path
       d="M 408.46019,510.86675 L 409.67658,511.12485 L 410.51986,507.16491 L 409.3029,506.90708 L 408.46019,510.86675"
       id="path3022"
       style="fill:#ffffff;fill-opacity:1;fill-rule:evenodd;stroke:none" />
    <path
       d="M 408.46019,510.86675 L 409.67658,511.12485 L 410.51986,507.16491 L 409.3029,506.90708 L 408.46019,510.86675 z"
       id="path3024"
       style="fill:none;stroke:#231f20;stroke-width:0.23517223;stroke-linecap:butt;stroke-linejoin:miter;stroke-miterlimit:3.86369991;stroke-dasharray:none;stroke-opacity:1" />
    <path
       d="M 415.33597,510.22865 C 415.4666,509.74246 415.66609,509.47746 416.2981,509.64663 L 417.70515,510.02301 C 418.33836,510.19212 418.37721,510.52112 418.24715,511.00725 L 418.13359,511.42861 C 417.98174,511.99568 417.80404,512.17973 417.23616,512.02771 L 415.69964,511.61672 C 415.13176,511.46476 415.06997,511.21692 415.22237,510.64988 L 415.33597,510.22865 z M 413.88889,510.69266 C 413.58169,511.83762 414.1537,512.27981 415.23474,512.56928 L 417.16141,513.08441 C 418.24421,513.37403 418.96036,513.27625 419.26756,512.13128 L 419.58064,510.9646 C 419.8884,509.81967 419.31642,509.37732 418.23479,509.088 L 416.30871,508.57257 C 415.22591,508.28293 414.50972,508.38095 414.20256,509.5262 L 413.88889,510.69266"
       id="path3026"
       style="fill:#ffffff;fill-opacity:1;fill-rule:evenodd;stroke:none" />
    <path
       d="M 415.33597,510.22865 C 415.4666,509.74246 415.66609,509.47746 416.2981,509.64663 L 417.70515,510.02301 C 418.33836,510.19212 418.37721,510.52112 418.24715,511.00725 L 418.13359,511.42861 C 417.98174,511.99568 417.80404,512.17973 417.23616,512.02771 L 415.69964,511.61672 C 415.13176,511.46476 415.06997,511.21692 415.22237,510.64988 L 415.33597,510.22865 z M 413.88889,510.69266 C 413.58169,511.83762 414.1537,512.27981 415.23474,512.56928 L 417.16141,513.08441 C 418.24421,513.37403 418.96036,513.27625 419.26756,512.13128 L 419.58064,510.9646 C 419.8884,509.81967 419.31642,509.37732 418.23479,509.088 L 416.30871,508.57257 C 415.22591,508.28293 414.50972,508.38095 414.20256,509.5262 L 413.88889,510.69266"
       id="path3028"
       style="fill:none;stroke:#231f20;stroke-width:0.23517223;stroke-linecap:butt;stroke-linejoin:miter;stroke-miterlimit:3.86369991;stroke-dasharray:none;stroke-opacity:1" />
    <path
       d="M 331.54723,512.44968 C 331.77479,513.29752 332.26842,513.38553 333.36152,513.09325 L 334.81687,512.70376 C 336.41333,512.27706 336.72366,512.00856 336.44154,510.95538 C 336.13518,509.81561 335.67198,509.81788 333.80657,510.32295 C 332.52015,510.6726 332.37134,510.701 332.27994,510.36056 C 332.22335,510.15001 332.38252,510.00891 332.65322,509.93667 L 333.98446,509.58068 C 334.53641,509.43331 334.60048,509.54313 334.67723,509.82942 L 335.87888,509.50813 L 335.8453,509.38395 C 335.6614,508.69788 335.40535,508.26257 334.02008,508.63306 L 332.34286,509.08197 C 330.82741,509.48723 330.90904,510.04993 331.09892,510.75742 C 331.35729,511.71861 331.6205,511.8798 333.42813,511.39648 C 334.97545,510.9826 335.12207,510.96688 335.21337,511.30672 C 335.29441,511.60932 335.04184,511.70596 334.78757,511.77363 L 333.31607,512.16768 C 332.96959,512.26013 332.79311,512.27272 332.67616,511.85798 L 331.47479,512.17921 L 331.54723,512.44968"
       id="path3030"
       style="fill:#ffffff;fill-opacity:1;fill-rule:evenodd;stroke:none" />
    <path
       d="M 342.4481,507.60895 L 343.55353,508.9291 L 341.99729,509.25925 L 342.4481,507.60895 z M 340.15858,511.27292 L 341.51715,510.98466 L 341.72458,510.20885 L 344.18971,509.68563 L 344.71721,510.3058 L 346.07089,510.01835 L 343.04694,506.52156 L 341.46312,506.85712 L 340.15858,511.27292"
       id="path3032"
       style="fill:#ffffff;fill-opacity:1;fill-rule:evenodd;stroke:none" />
    <path
       d="M 349.59887,509.3986 L 350.82725,509.20438 L 350.36611,506.29961 L 350.37701,506.29792 L 353.14557,508.83786 L 355.04923,508.53701 L 354.41421,504.53855 L 353.18636,504.73276 L 353.64672,507.63753 L 353.63576,507.63953 L 350.86751,505.0996 L 348.96445,505.40012 L 349.59887,509.3986"
       id="path3034"
       style="fill:#ffffff;fill-opacity:1;fill-rule:evenodd;stroke:none" />
    <path
       d="M 365.37975,504.54007 L 366.26447,506.01653 L 364.6763,506.09973 L 365.37975,504.54007 z M 362.54395,507.80131 L 363.93094,507.72907 L 364.25707,506.99512 L 366.7745,506.86353 L 367.19802,507.55815 L 368.57984,507.48553 L 366.14117,503.55942 L 364.5243,503.64435 L 362.54395,507.80131"
       id="path3036"
       style="fill:#ffffff;fill-opacity:1;fill-rule:evenodd;stroke:none" />
    <path
       d="M 372.16,507.37171 L 373.40288,507.37171 L 373.40288,504.43047 L 373.41465,504.43047 L 375.75031,507.37171 L 377.67757,507.37171 L 377.67757,503.32335 L 376.43353,503.32335 L 376.43353,506.26458 L 376.42292,506.26458 L 374.08607,503.32335 L 372.16,503.32335 L 372.16,507.37171"
       id="path3038"
       style="fill:#ffffff;fill-opacity:1;fill-rule:evenodd;stroke:none" />
    <path
       d="M 381.51853,504.4018 L 383.26396,504.49271 L 383.10392,507.53031 L 384.3462,507.59536 L 384.50565,504.55755 L 386.25108,504.649 L 386.30345,503.64403 L 381.57094,503.39648 L 381.51853,504.4018"
       id="path3040"
       style="fill:#ffffff;fill-opacity:1;fill-rule:evenodd;stroke:none" />
    <path
       d="M 391.17782,505.88518 C 391.23019,505.38441 391.38554,505.09156 392.03759,505.15983 L 393.48524,505.31186 C 394.13785,505.38013 394.22788,505.69897 394.17491,506.19922 L 394.12962,506.63317 C 394.0684,507.21708 393.92187,507.42648 393.33753,507.36515 L 391.75512,507.19931 C 391.16958,507.13791 391.07011,506.90273 391.13249,506.31851 L 391.17782,505.88518 z M 389.82138,506.56925 C 389.6972,507.74798 390.33157,508.0956 391.44498,508.21261 L 393.42874,508.42053 C 394.54271,508.53755 395.23417,508.32908 395.35835,507.14997 L 395.48428,505.9488 C 395.60845,504.77006 394.97584,504.42245 393.86186,504.30543 L 391.87926,504.09751 C 390.7641,503.98072 390.07207,504.18927 389.9479,505.3681 L 389.82138,506.56925"
       id="path3042"
       style="fill:#ffffff;fill-opacity:1;fill-rule:evenodd;stroke:none" />
    <path
       d="M 399.07868,509.11606 L 400.30334,509.33176 L 400.81588,506.43555 L 400.82705,506.4373 L 402.61545,509.73872 L 404.51326,510.07283 L 405.21768,506.08596 L 403.99249,505.87022 L 403.48167,508.76678 L 403.4699,508.76503 L 401.68093,505.46358 L 399.78369,505.12971 L 399.07868,509.11606"
       id="path3044"
       style="fill:#ffffff;fill-opacity:1;fill-rule:evenodd;stroke:none" />
    <path
       d="M 408.46019,510.86675 L 409.67658,511.12485 L 410.51986,507.16491 L 409.3029,506.90708 L 408.46019,510.86675"
       id="path3046"
       style="fill:#ffffff;fill-opacity:1;fill-rule:evenodd;stroke:none" />
    <path
       d="M 415.33597,510.22865 C 415.4666,509.74246 415.66609,509.47746 416.2981,509.64663 L 417.70515,510.02301 C 418.33836,510.19212 418.37721,510.52112 418.24715,511.00725 L 418.13359,511.42861 C 417.98174,511.99568 417.80404,512.17973 417.23616,512.02771 L 415.69964,511.61672 C 415.13176,511.46476 415.06997,511.21692 415.22237,510.64988 L 415.33597,510.22865 z M 413.88889,510.69266 C 413.58169,511.83762 414.1537,512.27981 415.23474,512.56928 L 417.16141,513.08441 C 418.24421,513.37403 418.96036,513.27625 419.26756,512.13128 L 419.58064,510.9646 C 419.8884,509.81967 419.31642,509.37732 418.23479,509.088 L 416.30871,508.57257 C 415.22591,508.28293 414.50972,508.38095 414.20256,509.5262 L 413.88889,510.69266"
       id="path3048"
       style="fill:#ffffff;fill-opacity:1;fill-rule:evenodd;stroke:none" />
    <path
       d="M 399.25935,521.96573 L 398.98925,523.66018 C 398.93513,523.98056 398.63087,524.19567 398.31015,524.14175 L 391.05186,522.91501 L 391.51913,520.06126 L 398.7774,521.28767 C 399.09812,521.34191 399.31351,521.64536 399.25935,521.96573 z M 402.54365,518.2349 L 388.06418,515.7875 L 385.24124,532.41706 L 389.30705,533.10423 L 390.44457,526.50187 L 395.68789,527.38838 L 397.70168,527.72882 C 398.0224,527.78243 398.23894,528.08618 398.18423,528.40593 L 397.32326,533.379 C 397.14613,534.42873 397.75051,534.49381 398.01357,534.54633 C 398.3084,534.6051 401.50145,535.16527 401.50145,535.16527 C 401.40435,535.06282 401.2084,534.70548 401.36729,533.98672 L 402.37239,528.1453 C 402.45891,527.56857 402.18055,527.06801 401.69859,526.83887 C 402.38063,526.76657 402.69312,526.23596 402.7914,525.68166 L 402.87673,525.17453 L 403.74943,519.92907 C 403.88538,519.12891 403.34573,518.37 402.54365,518.2349"
       id="path3058"
       style="fill:#181a21;fill-opacity:1;fill-rule:evenodd;stroke:none" />
    <path
       d="M 399.25935,521.96573 L 398.98925,523.66018 C 398.93513,523.98056 398.63087,524.19567 398.31015,524.14175 L 391.05186,522.91501 L 391.51913,520.06126 L 398.7774,521.28767 C 399.09812,521.34191 399.31351,521.64536 399.25935,521.96573 z M 402.54365,518.2349 L 388.06418,515.7875 L 385.24124,532.41706 L 389.30705,533.10423 L 390.44457,526.50187 L 395.68789,527.38838 L 397.70168,527.72882 C 398.0224,527.78243 398.23894,528.08618 398.18423,528.40593 L 397.32326,533.379 C 397.14613,534.42873 397.75051,534.49381 398.01357,534.54633 C 398.3084,534.6051 401.50145,535.16527 401.50145,535.16527 C 401.40435,535.06282 401.2084,534.70548 401.36729,533.98672 L 402.37239,528.1453 C 402.45891,527.56857 402.18055,527.06801 401.69859,526.83887 C 402.38063,526.76657 402.69312,526.23596 402.7914,525.68166 L 402.87673,525.17453 L 403.74943,519.92907 C 403.88538,519.12891 403.34573,518.37 402.54365,518.2349 z"
       id="path3060"
       style="fill:none;stroke:#231f20;stroke-width:0.23517223;stroke-linecap:butt;stroke-linejoin:miter;stroke-miterlimit:3.86369991;stroke-dasharray:none;stroke-opacity:1" />
    <path
       d="M 352.79042,534.56323 L 348.73976,535.3304 L 345.59247,518.75886 L 360.0222,516.02648 C 360.82137,515.8753 361.59197,516.39903 361.74315,517.19691 L 363.10948,524.2949 C 363.26117,525.09246 362.73621,525.86143 361.93682,526.01285 L 351.5385,527.98125 L 352.79042,534.56323 z M 350.85893,524.40725 L 358.11084,523.0343 C 358.43037,522.97381 358.64041,522.66612 358.57978,522.34741 L 358.24272,520.66471 C 358.18209,520.34555 357.87379,520.13608 357.55455,520.19636 L 350.32041,521.56646 L 350.85893,524.40725"
       id="path3070"
       style="fill:#181a21;fill-opacity:1;fill-rule:evenodd;stroke:none" />
    <path
       d="M 352.79042,534.56323 L 348.73976,535.3304 L 345.59247,518.75886 L 360.0222,516.02648 C 360.82137,515.8753 361.59197,516.39903 361.74315,517.19691 L 363.10948,524.2949 C 363.26117,525.09246 362.73621,525.86143 361.93682,526.01285 L 351.5385,527.98125 L 352.79042,534.56323 z M 350.85893,524.40725 L 358.11084,523.0343 C 358.43037,522.97381 358.64041,522.66612 358.57978,522.34741 L 358.24272,520.66471 C 358.18209,520.34555 357.87379,520.13608 357.55455,520.19636 L 350.32041,521.56646 L 350.85893,524.40725"
       id="path3072"
       style="fill:none;stroke:#231f20;stroke-width:0.23517223;stroke-linecap:butt;stroke-linejoin:miter;stroke-miterlimit:3.86369991;stroke-dasharray:none;stroke-opacity:1" />
    <path
       d="M 416.58295,533.05718 C 416.89246,533.15757 417.04312,533.54706 416.94307,533.85597 L 416.40287,535.51486 C 416.30224,535.82405 415.96915,535.99298 415.6602,535.89253 L 409.68362,533.95407 C 409.37411,533.85368 409.20405,533.52241 409.30525,533.21291 L 409.64775,532.16061 L 405.74261,530.89436 L 404.5374,534.59847 C 404.28554,535.37061 404.70924,536.20003 405.4825,536.45098 L 417.58039,540.37426 C 418.35367,540.62552 419.18457,540.20245 419.43587,539.43068 L 421.49554,533.10483 L 421.7227,532.40612 C 421.97455,531.634 421.55085,530.80485 420.777,530.55421 L 413.14446,528.07841 L 411.74389,527.62447 C 411.43434,527.5238 411.26428,527.19198 411.3661,526.88358 L 411.90043,525.24106 C 412.00047,524.93158 412.33296,524.76325 412.64191,524.86363 L 418.61849,526.80156 C 418.92859,526.90195 419.09809,527.23355 418.99686,527.5427 L 418.66612,528.47827 L 422.58776,529.74996 L 423.74765,526.18525 C 423.99891,525.41315 423.5758,524.584 422.80196,524.33327 L 410.70407,520.40978 C 409.93078,520.15883 409.09987,520.58131 408.84918,521.35335 L 406.77833,527.71395 L 406.5965,528.27321 C 406.34461,529.04497 406.76832,529.87443 407.54157,530.12545 L 412.15936,531.62285 L 416.58295,533.05718"
       id="path3082"
       style="fill:#181a21;fill-opacity:1;fill-rule:evenodd;stroke:none" />
    <path
       d="M 416.58295,533.05718 C 416.89246,533.15757 417.04312,533.54706 416.94307,533.85597 L 416.40287,535.51486 C 416.30224,535.82405 415.96915,535.99298 415.6602,535.89253 L 409.68362,533.95407 C 409.37411,533.85368 409.20405,533.52241 409.30525,533.21291 L 409.64775,532.16061 L 405.74261,530.89436 L 404.5374,534.59847 C 404.28554,535.37061 404.70924,536.20003 405.4825,536.45098 L 417.58039,540.37426 C 418.35367,540.62552 419.18457,540.20245 419.43587,539.43068 L 421.49554,533.10483 L 421.7227,532.40612 C 421.97455,531.634 421.55085,530.80485 420.777,530.55421 L 413.14446,528.07841 L 411.74389,527.62447 C 411.43434,527.5238 411.26428,527.19198 411.3661,526.88358 L 411.90043,525.24106 C 412.00047,524.93158 412.33296,524.76325 412.64191,524.86363 L 418.61849,526.80156 C 418.92859,526.90195 419.09809,527.23355 418.99686,527.5427 L 418.66612,528.47827 L 422.58776,529.74996 L 423.74765,526.18525 C 423.99891,525.41315 423.5758,524.584 422.80196,524.33327 L 410.70407,520.40978 C 409.93078,520.15883 409.09987,520.58131 408.84918,521.35335 L 406.77833,527.71395 L 406.5965,528.27321 C 406.34461,529.04497 406.76832,529.87443 407.54157,530.12545 L 412.15936,531.62285 L 416.58295,533.05718 z"
       id="path3084"
       style="fill:none;stroke:#231f20;stroke-width:0.23517223;stroke-linecap:butt;stroke-linejoin:miter;stroke-miterlimit:3.86369991;stroke-dasharray:none;stroke-opacity:1" />
    <path
       d="M 334.91885,532.62292 L 330.30131,534.12038 C 329.52806,534.37137 328.69737,533.94888 328.44589,533.17678 L 328.26378,532.61752 L 326.19375,526.25717 C 325.9423,525.48545 326.36559,524.65602 327.13878,524.40497 L 339.23652,520.48148 C 340.0103,520.23082 340.84068,520.65327 341.09244,521.42537 L 342.25268,524.9898 L 338.35609,526.25352 L 338.04861,525.30986 C 337.94832,525.00132 337.61589,524.83236 337.30641,524.93243 L 331.32968,526.87067 C 331.0202,526.97168 330.85101,527.30297 330.95158,527.61181 L 331.48628,529.2544 C 331.58685,529.56331 331.91903,529.73221 332.22851,529.63182 L 333.62903,529.17778 L 341.26197,526.70243 C 342.03548,526.4517 342.86617,526.8738 343.11734,527.646 L 343.3449,528.34486 L 345.40397,534.6705 C 345.65542,535.44228 345.23216,536.27146 344.45865,536.5227 L 332.3607,540.44596 C 331.58714,540.69688 330.75644,540.27475 330.50503,539.50261 L 329.29931,535.79793 L 333.20404,534.5314 L 333.54683,535.58453 C 333.6474,535.89313 333.97958,536.06207 334.28899,535.9614 L 340.26576,534.02343 C 340.57552,533.92277 340.74477,533.59152 340.64392,533.28261 L 340.10399,531.62343 C 340.00342,531.31452 339.65196,531.0882 339.34248,531.18833 L 334.91885,532.62292"
       id="path3094"
       style="fill:#181a21;fill-opacity:1;fill-rule:evenodd;stroke:none" />
    <path
       d="M 334.91885,532.62292 L 330.30131,534.12038 C 329.52806,534.37137 328.69737,533.94888 328.44589,533.17678 L 328.26378,532.61752 L 326.19375,526.25717 C 325.9423,525.48545 326.36559,524.65602 327.13878,524.40497 L 339.23652,520.48148 C 340.0103,520.23082 340.84068,520.65327 341.09244,521.42537 L 342.25268,524.9898 L 338.35609,526.25352 L 338.04861,525.30986 C 337.94832,525.00132 337.61589,524.83236 337.30641,524.93243 L 331.32968,526.87067 C 331.0202,526.97168 330.85101,527.30297 330.95158,527.61181 L 331.48628,529.2544 C 331.58685,529.56331 331.91903,529.73221 332.22851,529.63182 L 333.62903,529.17778 L 341.26197,526.70243 C 342.03548,526.4517 342.86617,526.8738 343.11734,527.646 L 343.3449,528.34486 L 345.40397,534.6705 C 345.65542,535.44228 345.23216,536.27146 344.45865,536.5227 L 332.3607,540.44596 C 331.58714,540.69688 330.75644,540.27475 330.50503,539.50261 L 329.29931,535.79793 L 333.20404,534.5314 L 333.54683,535.58453 C 333.6474,535.89313 333.97958,536.06207 334.28899,535.9614 L 340.26576,534.02343 C 340.57552,533.92277 340.74477,533.59152 340.64392,533.28261 L 340.10399,531.62343 C 340.00342,531.31452 339.65196,531.0882 339.34248,531.18833 L 334.91885,532.62292 z"
       id="path3096"
       style="fill:none;stroke:#231f20;stroke-width:0.23517223;stroke-linecap:butt;stroke-linejoin:miter;stroke-miterlimit:3.86369991;stroke-dasharray:none;stroke-opacity:1" />
  </g>
</svg>
